<svg width="29" height="28" viewBox="0 0 29 28" fill="none" xmlns="http://www.w3.org/2000/svg">
<path d="M14.3541 0C6.42347 0 0 6.42347 0 14.3541C0 20.7058 4.10886 26.0707 9.81462 27.9726C10.5323 28.0982 10.8015 27.6676 10.8015 27.2908C10.8015 26.9498 10.7835 25.8195 10.7835 24.6173C7.17706 25.2812 6.24404 23.7381 5.95696 22.9307C5.79547 22.518 5.09571 21.2441 4.48566 20.9032C3.98327 20.634 3.26556 19.9702 4.46772 19.9522C5.5981 19.9343 6.40552 20.9929 6.67466 21.4235C7.96653 23.5946 10.0299 22.9845 10.8553 22.6077C10.9809 21.6747 11.3577 21.0467 11.7704 20.6879C8.57658 20.329 5.23925 19.091 5.23925 13.6005C5.23925 12.0395 5.79547 10.7476 6.71055 9.74285C6.56701 9.384 6.06461 7.9127 6.85409 5.93901C6.85409 5.93901 8.05625 5.56222 10.8015 7.41031C11.9498 7.08734 13.1699 6.92586 14.39 6.92586C15.6101 6.92586 16.8302 7.08734 17.9785 7.41031C20.7238 5.54428 21.9259 5.93901 21.9259 5.93901C22.7154 7.9127 22.213 9.384 22.0694 9.74285C22.9845 10.7476 23.5407 12.0216 23.5407 13.6005C23.5407 19.1089 20.1855 20.329 16.9917 20.6879C17.512 21.1364 17.9606 21.9977 17.9606 23.3434C17.9606 25.2632 17.9426 26.8063 17.9426 27.2908C17.9426 27.6676 18.2118 28.1161 18.9295 27.9726C21.7792 27.0108 24.2555 25.1795 26.0097 22.7365C27.7639 20.2934 28.7077 17.3617 28.7082 14.3541C28.7082 6.42347 22.2848 0 14.3541 0Z" fill="#8794C0"/>
</svg>
