<svg width="20" height="20" viewBox="0 0 20 20" fill="none" xmlns="http://www.w3.org/2000/svg">
<path d="M17.465 12.7709C17.635 12.3659 17.1492 12.0209 16.7417 12.2009C15.9271 12.5584 15.047 12.7423 14.1575 12.7409C10.67 12.7409 7.84333 9.97088 7.84333 6.55338C7.84206 5.3995 8.16988 4.26919 8.78833 3.29505C9.025 2.92172 8.74083 2.40505 8.3075 2.51505C4.96667 3.36755 2.5 6.34422 2.5 9.88505C2.5 14.0909 5.97917 17.5 10.2717 17.5C13.5217 17.5 16.305 15.5459 17.465 12.7709Z" fill="#1C2135"/>
<path d="M13.0092 2.58566C12.5675 2.29066 12.0408 2.81733 12.335 3.25899L12.86 4.04649C13.073 4.3658 13.1866 4.74102 13.1866 5.12483C13.1866 5.50864 13.073 5.88386 12.86 6.20316L12.335 6.99066C12.0408 7.43233 12.5683 7.95899 13.01 7.66399L13.7967 7.139C14.116 6.92602 14.4912 6.81237 14.875 6.81237C15.2588 6.81237 15.634 6.92602 15.9533 7.139L16.7408 7.66399C17.1825 7.95899 17.7092 7.43233 17.4142 6.99066L16.8892 6.20316C16.6762 5.88386 16.5625 5.50864 16.5625 5.12483C16.5625 4.74102 16.6762 4.3658 16.8892 4.04649L17.4142 3.25899C17.7092 2.81733 17.1825 2.29066 16.74 2.58566L15.9533 3.11066C15.634 3.32363 15.2588 3.43729 14.875 3.43729C14.4912 3.43729 14.116 3.32363 13.7967 3.11066L13.0092 2.58566Z" fill="#1C2135"/>
</svg>
