<svg width="14" height="14" viewBox="0 0 14 14" fill="none" xmlns="http://www.w3.org/2000/svg">
<path d="M13.7185 9.7773C13.8715 9.42954 13.4343 9.1333 13.0675 9.28786C12.3344 9.59487 11.5423 9.75279 10.7418 9.75154C7.603 9.75154 5.059 7.37303 5.059 4.43852C5.05785 3.44772 5.35289 2.47716 5.9095 1.64069C6.1225 1.32012 5.86675 0.876476 5.47675 0.97093C2.47 1.70295 0.25 4.25892 0.25 7.29933C0.25 10.9107 3.38125 13.8381 7.2445 13.8381C10.1695 13.8381 12.6745 12.1601 13.7185 9.7773Z" fill="#1C2135"/>
<path d="M9.70838 1.03156C9.31088 0.778255 8.83688 1.23049 9.10163 1.60973L9.57413 2.28594C9.7658 2.56011 9.86809 2.8823 9.86809 3.21187C9.86809 3.54144 9.7658 3.86362 9.57413 4.1378L9.10163 4.814C8.83688 5.19325 9.31163 5.64548 9.70913 5.39217L10.4171 4.94137C10.7045 4.7585 11.0422 4.66091 11.3876 4.66091C11.7331 4.66091 12.0708 4.7585 12.3581 4.94137L13.0669 5.39217C13.4644 5.64548 13.9384 5.19325 13.6729 4.814L13.2004 4.1378C13.0087 3.86362 12.9064 3.54144 12.9064 3.21187C12.9064 2.8823 13.0087 2.56011 13.2004 2.28594L13.6729 1.60973C13.9384 1.23049 13.4644 0.778255 13.0661 1.03156L12.3581 1.48236C12.0708 1.66524 11.7331 1.76283 11.3876 1.76283C11.0422 1.76283 10.7045 1.66524 10.4171 1.48236L9.70838 1.03156Z" fill="#1C2135"/>
</svg>
