<svg width="30" height="36" viewBox="0 0 30 36" fill="none" xmlns="http://www.w3.org/2000/svg">
<path d="M10.9527 11.0832C12.0137 11.0832 12.8664 10.2306 12.8664 9.16954C12.8664 8.10849 12.0137 7.25586 10.9527 7.25586C9.89163 7.25586 9.039 8.10849 9.039 9.16954C9.039 10.2306 9.89163 11.0832 10.9527 11.0832Z" fill="#8794C0"/>
<path fill-rule="evenodd" clip-rule="evenodd" d="M14.799 15.2527C14.799 13.2064 13.0748 11.7285 10.9527 11.7285C8.83059 11.7285 7.10638 13.2064 7.10638 15.2527V16.219C7.10638 16.3896 7.18217 16.5601 7.29585 16.6738C7.40953 16.7875 7.58006 16.8633 7.75059 16.8633H14.1548C14.3253 16.8633 14.4958 16.7875 14.6095 16.6738C14.7232 16.5601 14.799 16.3896 14.799 16.219V15.2527ZM7.06848 20.8422C7.06848 20.4653 7.2182 20.1039 7.4847 19.8374C7.7512 19.5709 8.11265 19.4211 8.48953 19.4211H21.7527C22.1296 19.4211 22.491 19.5709 22.7575 19.8374C23.024 20.1039 23.1737 20.4653 23.1737 20.8422C23.1737 21.2191 23.024 21.5805 22.7575 21.847C22.491 22.1135 22.1296 22.2633 21.7527 22.2633H8.48953C8.11265 22.2633 7.7512 22.1135 7.4847 21.847C7.2182 21.5805 7.06848 21.2191 7.06848 20.8422ZM7.06848 26.5264C7.06848 26.1495 7.2182 25.7881 7.4847 25.5216C7.7512 25.2551 8.11265 25.1054 8.48953 25.1054H21.7527C22.1296 25.1054 22.491 25.2551 22.7575 25.5216C23.024 25.7881 23.1737 26.1495 23.1737 26.5264C23.1737 26.9033 23.024 27.2647 22.7575 27.5312C22.491 27.7977 22.1296 27.9475 21.7527 27.9475H8.48953C8.11265 27.9475 7.7512 27.7977 7.4847 27.5312C7.2182 27.2647 7.06848 26.9033 7.06848 26.5264Z" fill="#8794C0"/>
<path fill-rule="evenodd" clip-rule="evenodd" d="M0.910522 3.78947C0.910522 1.70147 2.612 0 4.7 0H17.3758C18.4406 0 19.4448 0.450947 20.1516 1.19558L20.1629 1.20884L28.333 10.1179C29.0133 10.8436 29.3316 11.7928 29.3316 12.6947V32.2105C29.3316 34.2985 27.6301 36 25.5421 36H4.7C2.612 36 0.910522 34.2985 0.910522 32.2105V3.78947ZM17.3739 3.78947H4.7V32.2105H25.5421V12.6796L17.4023 3.80274L17.3966 3.80084C17.3897 3.79583 17.382 3.79199 17.3739 3.78947Z" fill="#8794C0"/>
<path fill-rule="evenodd" clip-rule="evenodd" d="M17.3758 0C17.8783 0 18.3602 0.199624 18.7155 0.554956C19.0709 0.910288 19.2705 1.39222 19.2705 1.89474V10.8H27.4368C27.6856 10.8 27.932 10.849 28.1619 10.9442C28.3918 11.0394 28.6006 11.179 28.7766 11.355C28.9525 11.5309 29.0921 11.7398 29.1873 11.9697C29.2825 12.1995 29.3315 12.4459 29.3315 12.6947C29.3315 12.9436 29.2825 13.1899 29.1873 13.4198C29.0921 13.6497 28.9525 13.8586 28.7766 14.0345C28.6006 14.2105 28.3918 14.35 28.1619 14.4452C27.932 14.5405 27.6856 14.5895 27.4368 14.5895H17.3758C16.8732 14.5895 16.3913 14.3898 16.036 14.0345C15.6806 13.6792 15.481 13.1973 15.481 12.6947V1.89474C15.481 1.39222 15.6806 0.910288 16.036 0.554956C16.3913 0.199624 16.8732 0 17.3758 0Z" fill="#8794C0"/>
</svg>
