<svg width="23" height="28" viewBox="0 0 23 28" fill="none" xmlns="http://www.w3.org/2000/svg">
<path d="M8.51882 8.6204C9.34408 8.6204 10.0072 7.95724 10.0072 7.13198C10.0072 6.30671 9.34408 5.64355 8.51882 5.64355C7.69355 5.64355 7.0304 6.30671 7.0304 7.13198C7.0304 7.95724 7.69355 8.6204 8.51882 8.6204Z" fill="#8794C0"/>
<path fill-rule="evenodd" clip-rule="evenodd" d="M11.5104 11.8631C11.5104 10.2715 10.1694 9.12207 8.51886 9.12207C6.86833 9.12207 5.52728 10.2715 5.52728 11.8631V12.6147C5.52728 12.7473 5.58622 12.88 5.67464 12.9684C5.76307 13.0568 5.8957 13.1158 6.02833 13.1158H11.0094C11.142 13.1158 11.2746 13.0568 11.3631 12.9684C11.4515 12.88 11.5104 12.7473 11.5104 12.6147V11.8631ZM5.4978 16.2105C5.4978 15.9174 5.61425 15.6362 5.82153 15.429C6.0288 15.2217 6.30993 15.1052 6.60307 15.1052H16.9189C17.212 15.1052 17.4931 15.2217 17.7004 15.429C17.9077 15.6362 18.0241 15.9174 18.0241 16.2105C18.0241 16.5036 17.9077 16.7848 17.7004 16.992C17.4931 17.1993 17.212 17.3158 16.9189 17.3158H6.60307C6.30993 17.3158 6.0288 17.1993 5.82153 16.992C5.61425 16.7848 5.4978 16.5036 5.4978 16.2105ZM5.4978 20.6315C5.4978 20.3384 5.61425 20.0573 5.82153 19.85C6.0288 19.6427 6.30993 19.5263 6.60307 19.5263H16.9189C17.212 19.5263 17.4931 19.6427 17.7004 19.85C17.9077 20.0573 18.0241 20.3384 18.0241 20.6315C18.0241 20.9247 17.9077 21.2058 17.7004 21.4131C17.4931 21.6204 17.212 21.7368 16.9189 21.7368H6.60307C6.30993 21.7368 6.0288 21.6204 5.82153 21.4131C5.61425 21.2058 5.4978 20.9247 5.4978 20.6315Z" fill="#8794C0"/>
<path fill-rule="evenodd" clip-rule="evenodd" d="M0.708252 2.94737C0.708252 1.32337 2.03162 0 3.65562 0H13.5146C14.3428 0 15.1238 0.350737 15.6735 0.929895L15.6824 0.940211L22.0369 7.86947C22.5659 8.4339 22.8135 9.17221 22.8135 9.87368V25.0526C22.8135 26.6766 21.4901 28 19.8661 28H3.65562C2.03162 28 0.708252 26.6766 0.708252 25.0526V2.94737ZM13.5131 2.94737H3.65562V25.0526H19.8661V9.86189L13.5352 2.95768L13.5308 2.95621C13.5254 2.95231 13.5194 2.94932 13.5131 2.94737Z" fill="#8794C0"/>
<path fill-rule="evenodd" clip-rule="evenodd" d="M13.5146 0C13.9054 0 14.2803 0.155263 14.5566 0.431632C14.833 0.708001 14.9883 1.08284 14.9883 1.47368V8.4H21.3398C21.5334 8.4 21.725 8.43812 21.9038 8.51218C22.0826 8.58624 22.2451 8.69479 22.3819 8.83163C22.5187 8.96848 22.6273 9.13093 22.7013 9.30973C22.7754 9.48852 22.8135 9.68016 22.8135 9.87368C22.8135 10.0672 22.7754 10.2588 22.7013 10.4376C22.6273 10.6164 22.5187 10.7789 22.3819 10.9157C22.2451 11.0526 22.0826 11.1611 21.9038 11.2352C21.725 11.3092 21.5334 11.3474 21.3398 11.3474H13.5146C13.1237 11.3474 12.7489 11.1921 12.4725 10.9157C12.1962 10.6394 12.0409 10.2645 12.0409 9.87368V1.47368C12.0409 1.08284 12.1962 0.708001 12.4725 0.431632C12.7489 0.155263 13.1237 0 13.5146 0Z" fill="#8794C0"/>
</svg>
